<?xml version="1.0" encoding="UTF-8" standalone="no"?>
<!DOCTYPE svg PUBLIC "-//W3C//DTD SVG 1.1//EN"
 "http://www.w3.org/Graphics/SVG/1.1/DTD/svg11.dtd">
<!-- Generated by graphviz version 2.28.0 (20130927.1109)
 -->
<!-- Title: G Pages: 1 -->
<svg width="206pt" height="188pt"
 viewBox="0.00 0.00 206.00 188.00" xmlns="http://www.w3.org/2000/svg" xmlns:xlink="http://www.w3.org/1999/xlink">
<g id="graph1" class="graph" transform="scale(1 1) rotate(0) translate(4 184)">
<title>G</title>
<polygon fill="white" stroke="white" points="-4,5 -4,-184 203,-184 203,5 -4,5"/>
<!-- E1 -->
<g id="node2" class="node"><title>E1</title>
<polygon fill="none" stroke="black" points="85,-180 49,-180 49,-144 85,-144 85,-180"/>
<text text-anchor="middle" x="67" y="-158.3" font-family="Times,serif" font-size="14.00">E1</text>
</g>
<!-- S1 -->
<g id="node6" class="node"><title>S1</title>
<ellipse fill="none" stroke="black" cx="63" cy="-90" rx="27" ry="18"/>
<text text-anchor="middle" x="63" y="-86.3" font-family="Times,serif" font-size="14.00">S1</text>
</g>
<!-- E1&#45;&gt;S1 -->
<g id="edge4" class="edge"><title>E1&#45;&gt;S1</title>
<path fill="none" stroke="black" d="M66.0112,-143.697C65.5704,-135.983 65.0407,-126.712 64.5493,-118.112"/>
<polygon fill="black" stroke="black" points="68.0423,-117.888 63.9774,-108.104 61.0537,-118.288 68.0423,-117.888"/>
</g>
<!-- S2 -->
<g id="node7" class="node"><title>S2</title>
<ellipse fill="none" stroke="black" cx="135" cy="-90" rx="27" ry="18"/>
<text text-anchor="middle" x="135" y="-86.3" font-family="Times,serif" font-size="14.00">S2</text>
</g>
<!-- E1&#45;&gt;S2 -->
<g id="edge5" class="edge"><title>E1&#45;&gt;S2</title>
<path fill="none" stroke="black" d="M83.809,-143.697C92.8351,-134.405 104.055,-122.855 113.688,-112.939"/>
<polygon fill="black" stroke="black" points="116.225,-115.35 120.683,-105.738 111.204,-110.472 116.225,-115.35"/>
</g>
<!-- E2 -->
<g id="node3" class="node"><title>E2</title>
<polygon fill="none" stroke="black" points="148,-180 112,-180 112,-144 148,-144 148,-180"/>
<text text-anchor="middle" x="130" y="-158.3" font-family="Times,serif" font-size="14.00">E2</text>
</g>
<!-- E2&#45;&gt;S1 -->
<g id="edge6" class="edge"><title>E2&#45;&gt;S1</title>
<path fill="none" stroke="black" d="M113.438,-143.697C104.632,-134.496 93.7066,-123.082 84.2781,-113.231"/>
<polygon fill="black" stroke="black" points="86.5497,-110.542 77.1067,-105.738 81.4928,-115.383 86.5497,-110.542"/>
</g>
<!-- E2&#45;&gt;S2 -->
<g id="edge7" class="edge"><title>E2&#45;&gt;S2</title>
<path fill="none" stroke="black" d="M131.236,-143.697C131.787,-135.983 132.449,-126.712 133.063,-118.112"/>
<polygon fill="black" stroke="black" points="136.557,-118.328 133.778,-108.104 129.575,-117.83 136.557,-118.328"/>
</g>
<!-- S1&#45;&gt;S2 -->
<g id="edge10" class="edge"><title>S1&#45;&gt;S2</title>
<path fill="none" stroke="black" d="M84.375,-78.728C90.7773,-76.7773 97.1796,-76.1075 103.582,-76.7187"/>
<polygon fill="black" stroke="black" points="103.15,-80.2016 113.643,-78.7334 104.525,-73.3379 103.15,-80.2016"/>
</g>
<!-- C1 -->
<g id="node13" class="node"><title>C1</title>
<ellipse fill="none" stroke="black" cx="27" cy="-18" rx="27" ry="18"/>
<text text-anchor="middle" x="27" y="-14.3" font-family="Times,serif" font-size="14.00">C1</text>
</g>
<!-- S1&#45;&gt;C1 -->
<g id="edge15" class="edge"><title>S1&#45;&gt;C1</title>
<path fill="none" stroke="black" d="M54.6504,-72.7646C50.2885,-64.2831 44.8531,-53.7144 39.9587,-44.1974"/>
<polygon fill="black" stroke="black" points="42.9904,-42.4395 35.3043,-35.1473 36.7654,-45.6409 42.9904,-42.4395"/>
</g>
<!-- C2 -->
<g id="node14" class="node"><title>C2</title>
<ellipse fill="none" stroke="black" cx="99" cy="-18" rx="27" ry="18"/>
<text text-anchor="middle" x="99" y="-14.3" font-family="Times,serif" font-size="14.00">C2</text>
</g>
<!-- S1&#45;&gt;C2 -->
<g id="edge16" class="edge"><title>S1&#45;&gt;C2</title>
<path fill="none" stroke="black" d="M71.3496,-72.7646C75.7115,-64.2831 81.1469,-53.7144 86.0413,-44.1974"/>
<polygon fill="black" stroke="black" points="89.2346,-45.6409 90.6957,-35.1473 83.0096,-42.4395 89.2346,-45.6409"/>
</g>
<!-- C3 -->
<g id="node15" class="node"><title>C3</title>
<ellipse fill="none" stroke="black" cx="171" cy="-18" rx="27" ry="18"/>
<text text-anchor="middle" x="171" y="-14.3" font-family="Times,serif" font-size="14.00">C3</text>
</g>
<!-- S1&#45;&gt;C3 -->
<g id="edge17" class="edge"><title>S1&#45;&gt;C3</title>
<path fill="none" stroke="black" d="M81.8122,-76.8069C99.0021,-65.6653 124.618,-49.0622 143.993,-36.5043"/>
<polygon fill="black" stroke="black" points="145.916,-39.4294 152.403,-31.0533 142.108,-33.5553 145.916,-39.4294"/>
</g>
<!-- S2&#45;&gt;S1 -->
<g id="edge11" class="edge"><title>S2&#45;&gt;S1</title>
<path fill="none" stroke="black" d="M113.643,-101.267C107.24,-103.22 100.838,-103.892 94.4357,-103.283"/>
<polygon fill="black" stroke="black" points="94.8671,-99.8001 84.375,-101.272 93.495,-106.664 94.8671,-99.8001"/>
</g>
<!-- S2&#45;&gt;C1 -->
<g id="edge18" class="edge"><title>S2&#45;&gt;C1</title>
<path fill="none" stroke="black" d="M116.188,-76.8069C98.9979,-65.6653 73.3816,-49.0622 54.0067,-36.5043"/>
<polygon fill="black" stroke="black" points="55.8918,-33.5553 45.5966,-31.0533 52.0845,-39.4294 55.8918,-33.5553"/>
</g>
<!-- S2&#45;&gt;C2 -->
<g id="edge19" class="edge"><title>S2&#45;&gt;C2</title>
<path fill="none" stroke="black" d="M126.65,-72.7646C122.288,-64.2831 116.853,-53.7144 111.959,-44.1974"/>
<polygon fill="black" stroke="black" points="114.99,-42.4395 107.304,-35.1473 108.765,-45.6409 114.99,-42.4395"/>
</g>
<!-- S2&#45;&gt;C3 -->
<g id="edge20" class="edge"><title>S2&#45;&gt;C3</title>
<path fill="none" stroke="black" d="M143.35,-72.7646C147.712,-64.2831 153.147,-53.7144 158.041,-44.1974"/>
<polygon fill="black" stroke="black" points="161.235,-45.6409 162.696,-35.1473 155.01,-42.4395 161.235,-45.6409"/>
</g>
</g>
</svg>
